<?xml version="1.0" standalone="no"?>
<!DOCTYPE svg PUBLIC "-//W3C//DTD SVG 20010904//EN"
 "http://www.w3.org/TR/2001/REC-SVG-20010904/DTD/svg10.dtd">
<svg version="1.0" xmlns="http://www.w3.org/2000/svg"
 width="358.000000pt" height="358.000000pt" viewBox="0 0 358.000000 358.000000"
 preserveAspectRatio="xMidYMid meet">
<metadata>
Created by potrace 1.14, written by Peter Selinger 2001-2017
</metadata>
<g transform="translate(0.000000,358.000000) scale(0.100000,-0.100000)"
fill="#000000" stroke="none">
<path d="M498 3533 c-90 -18 -186 -38 -214 -43 l-50 -11 1 -38 c1 -48 21 -77
41 -60 11 9 14 8 14 0 0 -7 5 -9 10 -6 6 4 7 12 3 18 -4 7 0 6 10 -2 15 -12
17 -11 17 5 0 11 3 15 8 9 10 -16 54 -17 46 -2 -5 9 -4 9 5 1 18 -17 -31 -94
-56 -88 -10 2 -24 0 -32 -5 -12 -8 -13 -14 -3 -37 7 -14 16 -24 19 -20 3 3 12
1 20 -5 9 -9 13 -8 13 0 0 18 20 12 21 -6 0 -12 2 -13 6 -5 4 10 9 9 24 -4 10
-9 16 -21 12 -27 -3 -6 -1 -7 5 -3 7 4 19 3 28 -2 12 -7 5 -16 -39 -49 -34
-26 -58 -38 -66 -33 -21 12 -51 -1 -51 -21 0 -11 7 -22 15 -25 8 -4 13 -9 10
-13 -2 -4 2 -8 10 -8 8 0 12 4 9 9 -17 27 34 -19 53 -48 24 -38 17 -45 -37
-33 -59 13 -110 17 -111 8 -10 -68 0 -99 33 -99 11 0 16 -4 12 -11 -4 -8 0 -8
15 0 16 9 21 9 21 0 0 -7 3 -9 7 -6 3 4 13 1 21 -6 13 -9 14 -9 8 1 -4 6 -3
12 3 12 5 0 15 -8 20 -17 6 -10 11 -12 11 -5 0 6 5 12 11 12 5 0 8 -4 5 -8 -2
-4 13 -8 35 -7 22 1 42 -2 45 -7 3 -4 12 -4 21 -1 12 5 14 3 8 -6 -5 -10 -2
-11 14 -6 11 3 21 3 21 -2 0 -4 18 -7 40 -7 28 2 40 -2 40 -12 0 -8 3 -14 8
-14 7 0 9 -1686 2 -1693 -6 -5 -264 -136 -307 -156 -27 -12 -34 -22 -40 -60
-4 -25 -7 -52 -6 -58 0 -7 -3 -13 -9 -13 -5 0 -6 -4 -3 -10 3 -5 1 -36 -4 -67
-10 -54 -15 -86 -27 -158 -2 -16 -9 -55 -14 -85 -5 -30 -12 -80 -16 -110 -3
-30 -10 -59 -14 -65 -4 -5 -12 -31 -18 -58 -9 -44 -8 -50 19 -83 15 -19 30
-35 33 -35 21 2 26 -1 20 -11 -6 -10 -4 -10 8 0 12 9 18 10 23 2 5 -8 11 -7
23 2 12 10 14 10 8 1 -5 -9 1 -13 19 -13 18 0 24 -4 19 -12 -5 -9 -2 -9 9 1
11 8 17 9 17 3 0 -7 7 -9 17 -5 11 4 14 3 9 -5 -5 -8 -2 -10 9 -6 9 4 25 -2
37 -12 12 -11 18 -13 14 -7 -5 9 -2 11 8 7 9 -3 13 -10 10 -15 -3 -5 2 -6 10
-3 9 3 16 1 16 -5 0 -6 6 -10 13 -8 6 1 11 -3 10 -10 -2 -7 4 -10 12 -7 8 3
22 -1 31 -10 8 -9 21 -13 27 -9 7 4 33 8 60 9 26 0 50 4 54 7 3 4 15 -1 26
-10 11 -10 17 -12 13 -5 -9 16 16 16 33 -1 9 -7 11 -7 8 -1 -4 7 0 15 8 18 9
3 18 -1 21 -9 4 -8 10 -12 15 -9 5 3 6 11 3 17 -5 9 -4 9 6 0 14 -13 63 3 54
18 -3 5 4 9 15 9 12 0 21 5 21 11 0 5 4 8 9 4 5 -3 16 2 24 10 12 11 17 12 20
2 4 -9 6 -9 6 1 1 7 6 10 11 7 6 -3 13 1 16 9 3 9 10 16 16 16 5 0 7 -4 4 -9
-8 -12 24 -7 32 5 4 5 13 10 21 12 12 3 12 1 0 -15 -13 -17 -13 -17 6 -2 11 9
26 14 34 11 10 -3 11 0 5 9 -7 12 -5 12 9 0 14 -11 18 -11 23 3 3 9 10 14 14
11 11 -7 53 29 56 49 1 10 -2 14 -9 10 -9 -5 -9 -4 0 6 6 7 9 19 6 28 -5 11
-2 13 8 8 11 -6 10 -4 -1 6 -17 15 -24 34 -23 67 1 18 -1 20 -8 10 -6 -10 -9
-2 -9 24 0 20 1 39 3 40 1 2 -5 12 -13 22 -13 17 -13 18 0 10 12 -6 13 -5 3 6
-17 17 -17 32 0 23 9 -6 9 -5 0 7 -7 9 -15 31 -17 50 -3 19 -5 34 -6 34 -1 0
-3 10 -6 23 -3 17 -1 21 8 16 9 -6 9 -3 -1 9 -7 9 -11 24 -7 32 4 11 2 14 -6
9 -7 -5 -9 -2 -5 9 3 9 1 18 -6 21 -9 3 -8 5 1 5 8 1 10 6 5 14 -13 22 -14 49
-1 42 7 -4 6 -1 -2 7 -9 8 -15 29 -15 51 1 20 -3 37 -8 37 -4 0 -7 8 -5 18 1
9 -1 23 -5 30 -5 7 -4 12 2 12 6 0 11 5 11 11 0 5 -4 8 -9 5 -5 -3 -11 2 -14
12 -2 10 -71 51 -168 101 -90 46 -167 89 -171 95 -4 6 -2 16 4 23 8 10 7 13
-3 13 -11 0 -11 2 1 10 13 9 13 10 0 10 -13 0 -13 1 0 10 13 9 13 10 0 10 -13
0 -13 1 0 10 8 5 10 10 3 10 -6 0 -10 8 -8 17 2 10 4 22 4 26 1 5 7 5 14 2 6
-4 3 1 -8 10 -14 12 -16 19 -7 22 6 3 9 9 6 14 -10 16 -12 59 -3 53 5 -3 9 0
9 5 0 6 -5 11 -11 11 -6 0 -7 5 -2 13 11 17 10 40 -2 50 -6 6 -6 10 3 14 6 2
9 9 6 15 -7 11 -13 88 -6 88 10 0 92 -95 92 -107 0 -7 3 -12 8 -11 8 3 52 -38
52 -48 0 -4 12 -17 26 -30 14 -13 23 -28 20 -33 -3 -5 3 -11 14 -14 11 -3 20
-13 20 -22 0 -9 5 -13 10 -10 6 3 10 3 10 -2 0 -4 11 -21 25 -37 13 -16 22
-33 18 -39 -4 -6 -1 -7 6 -3 13 9 43 -23 34 -37 -2 -4 1 -6 9 -5 7 2 12 -3 10
-10 -1 -8 1 -11 5 -9 11 6 64 -49 55 -58 -4 -4 -2 -5 3 -3 14 4 86 -63 79 -73
-3 -5 2 -9 10 -9 9 0 16 -4 16 -9 0 -5 6 -16 14 -23 32 -33 59 -104 60 -160 1
-31 3 -54 5 -52 2 2 11 -2 19 -9 13 -10 14 -9 7 3 -7 12 -6 13 6 3 12 -10 18
-10 29 0 10 9 11 9 6 0 -5 -9 -2 -11 8 -7 9 3 14 10 11 14 -3 5 3 6 14 3 10
-3 22 0 25 6 4 6 12 11 17 11 6 0 7 -6 3 -12 -6 -9 -3 -9 9 0 14 12 80 18 112
12 6 -1 25 -2 43 -2 22 0 30 -3 25 -11 -4 -7 2 -5 12 3 10 8 16 10 12 4 -4 -7
0 -14 8 -17 10 -4 12 -1 8 11 -6 15 -5 15 10 3 9 -7 17 -10 17 -5 0 5 7 0 15
-10 15 -19 15 -19 15 -1 0 14 3 16 11 8 6 -6 18 -9 27 -6 10 4 13 2 8 -6 -6
-8 1 -10 25 -6 30 5 31 4 19 -12 -12 -15 -12 -16 0 -5 17 15 50 16 50 2 0 -6
11 -8 25 -4 15 4 34 0 48 -8 12 -8 40 -15 62 -17 22 -1 43 -7 47 -14 6 -9 8
-8 8 3 0 9 3 11 8 4 4 -5 23 -10 44 -10 20 1 34 -3 31 -8 -3 -4 4 -5 16 -1 14
4 21 2 21 -7 0 -10 3 -9 11 2 8 11 12 12 16 3 2 -7 9 -13 14 -13 6 0 8 4 5 8
-6 10 30 9 40 -1 4 -3 14 -3 23 2 9 5 25 6 36 4 36 -8 115 -8 115 -1 0 11 23
5 32 -7 5 -6 8 -4 8 5 0 13 1 13 10 0 9 -13 10 -13 10 0 0 13 1 13 10 0 5 -8
10 -10 10 -3 0 6 8 10 18 8 9 -1 16 -9 14 -16 -2 -9 4 -7 17 5 12 11 29 16 41
13 11 -3 20 -1 20 4 0 5 5 9 11 9 5 0 8 -4 5 -8 -2 -4 4 -8 14 -8 10 0 17 3
14 7 -2 4 3 10 12 13 8 3 12 2 9 -4 -9 -14 8 -12 24 3 11 10 12 9 6 -3 -5 -9
0 -8 14 4 16 15 20 16 16 5 -4 -10 0 -16 9 -16 8 0 12 5 10 11 -3 8 10 11 36
9 29 -1 39 1 34 10 -5 9 -3 9 6 0 10 -10 17 -10 28 -1 10 9 16 8 23 -3 7 -11
9 -10 9 5 0 16 2 17 17 5 9 -8 14 -9 10 -3 -4 7 0 15 9 18 10 4 13 2 8 -7 -4
-6 3 -3 15 7 22 20 22 20 16 0 -6 -18 -6 -18 8 -1 11 14 16 15 20 5 4 -10 6
-10 6 0 1 10 6 10 21 2 17 -9 19 -8 13 7 -6 16 -5 17 12 3 11 -9 16 -10 11 -3
-5 9 1 13 18 13 14 0 28 -1 31 -2 2 -2 11 6 20 17 12 16 14 17 9 3 -3 -10 -1
-18 5 -18 6 0 11 7 11 15 0 8 6 12 13 9 8 -3 20 2 27 11 10 12 16 13 28 3 11
-9 14 -9 9 -1 -4 7 0 16 10 22 22 13 51 12 -362 16 -181 2 -367 6 -412 8 -56
4 -83 1 -87 -7 -3 -7 -5 -7 -5 2 -1 6 -8 12 -16 12 -8 0 -15 -6 -15 -12 0 -9
-3 -9 -9 1 -6 9 -28 16 -53 17 -24 1 -53 5 -65 8 -46 12 -69 16 -98 18 -16 1
-36 6 -42 11 -9 6 -13 5 -13 -4 0 -9 -3 -10 -8 -3 -4 6 -29 17 -57 24 -138 38
-438 172 -549 246 -32 21 -66 44 -75 49 -9 6 -18 12 -21 15 -3 3 -32 27 -65
54 -56 46 -299 288 -355 353 -14 16 -41 47 -60 69 -48 53 -98 120 -82 110 7
-4 12 -2 12 5 0 7 3 9 7 6 3 -4 12 1 20 11 8 9 11 11 7 3 -5 -10 -3 -12 5 -7
7 5 10 15 6 23 -4 13 -3 14 10 3 12 -10 15 -10 15 3 0 8 12 22 26 32 18 11 24
13 19 4 -5 -8 3 -2 18 14 14 15 31 27 37 27 6 0 8 5 4 12 -5 8 -2 9 10 5 14
-6 17 -3 12 9 -6 15 -4 15 11 3 10 -7 15 -10 11 -5 -4 5 -3 17 3 28 9 16 13
17 27 6 13 -11 15 -11 9 4 -7 20 9 35 16 16 4 -10 6 -10 6 0 1 7 5 10 11 7 6
-4 7 1 3 11 -4 11 -2 15 4 11 6 -4 13 0 17 8 3 8 12 15 19 15 8 0 19 10 25 23
6 12 11 16 11 10 1 -7 5 -13 11 -13 5 0 6 7 3 17 -4 10 -2 14 5 9 6 -3 14 -1
19 6 4 7 20 19 35 27 15 8 26 19 25 25 -1 6 6 10 16 10 14 -2 15 1 6 12 -10
12 -9 13 5 8 9 -4 16 -1 16 6 0 7 7 10 16 6 14 -5 15 -4 4 9 -11 13 -10 14 5
9 12 -5 16 -4 12 3 -4 6 4 14 18 17 14 4 23 11 19 17 -3 6 3 13 15 16 11 3 19
9 16 13 -7 11 22 33 35 25 6 -4 10 -3 9 2 -4 21 2 33 16 33 8 0 15 5 15 11 0
5 4 8 9 5 5 -3 11 4 14 15 4 14 11 20 21 16 11 -4 13 -1 9 10 -4 11 -2 14 5 9
8 -4 12 0 12 11 0 15 2 16 10 3 8 -12 10 -11 10 8 0 20 10 27 33 23 5 -1 6 3
2 9 -3 5 -1 10 5 10 6 0 8 5 4 13 -6 9 -4 9 8 -1 14 -12 16 -10 11 10 -3 16
-2 19 4 10 7 -9 12 -6 21 13 6 14 16 25 22 25 6 0 9 4 5 9 -5 10 23 31 37 28
3 -1 10 2 15 7 5 5 2 6 -7 2 -9 -5 -8 -2 2 7 10 8 14 18 10 22 -4 5 1 5 10 2
13 -4 15 -2 11 10 -4 11 -2 14 5 9 7 -4 12 -1 12 9 0 9 4 14 9 11 5 -3 12 5
15 18 3 14 16 26 31 30 14 4 25 11 25 17 0 8 -6 7 -17 -2 -15 -11 -15 -10 1 8
10 13 23 20 29 16 6 -3 7 -1 3 5 -3 6 0 14 7 19 7 4 16 16 20 26 3 9 14 17 23
17 14 0 15 2 3 17 -10 11 -10 14 -1 9 7 -4 12 -1 12 9 0 10 5 13 13 9 6 -4 9
-4 5 1 -4 4 -3 17 3 28 14 25 24 31 -201 -119 -209 -139 -232 -149 -519 -224
-107 -27 -197 -52 -199 -55 -2 -2 9 -7 24 -11 16 -4 35 -11 41 -16 7 -6 19 -8
28 -4 8 3 14 0 12 -6 -1 -6 7 -11 18 -12 11 -1 28 -7 38 -12 15 -9 12 -15 -25
-53 -111 -113 -494 -424 -510 -415 -5 3 -4 12 3 20 6 8 7 14 2 14 -5 0 -10 7
-10 15 0 8 5 15 11 15 7 0 7 3 1 8 -15 11 -17 32 -2 32 9 0 9 2 -1 9 -17 11
-17 21 0 32 7 5 8 9 3 9 -6 0 -11 9 -12 20 -1 11 2 20 8 20 5 0 9 5 9 11 0 5
-6 7 -13 3 -9 -6 -9 -4 1 8 10 13 10 17 0 21 -10 4 -10 8 2 16 9 7 11 14 5 19
-5 4 -10 14 -10 22 0 8 5 18 10 23 6 4 4 11 -5 17 -13 9 -13 10 0 10 13 0 13
1 0 10 -13 9 -13 11 0 20 9 6 11 13 5 18 -5 4 -10 14 -10 22 0 8 5 18 10 23 6
4 4 11 -5 17 -13 9 -13 10 0 10 13 0 13 1 0 10 -13 9 -13 11 0 20 13 9 13 11
0 20 -13 9 -13 10 0 10 13 0 13 1 0 10 -13 9 -13 10 0 10 12 0 13 2 1 9 -11 7
-11 9 0 14 10 4 10 6 2 6 -7 1 -13 6 -13 12 0 5 4 8 8 5 5 -3 9 1 9 9 0 8 -4
15 -9 15 -4 0 -8 5 -8 11 0 5 5 7 10 4 13 -8 8 17 -5 28 -6 6 -6 10 3 14 6 2
12 9 12 14 0 6 -6 7 -12 3 -10 -6 -10 -4 0 8 10 12 10 17 1 20 -9 3 -9 9 0 27
8 15 18 20 29 16 9 -3 13 -3 9 1 -8 9 33 45 43 39 5 -3 6 5 3 17 -3 16 -2 19
5 10 7 -10 13 -4 26 23 10 20 24 39 31 41 7 3 19 19 25 35 7 16 16 26 21 23 5
-3 9 4 9 16 0 11 7 23 15 26 8 4 15 15 15 26 0 12 9 22 21 25 16 4 17 8 7 14
-10 7 -11 9 0 9 7 0 10 5 7 10 -3 6 -2 10 3 10 6 0 9 8 8 18 0 10 5 16 14 14
12 -3 13 -1 3 9 -16 16 -17 33 -1 23 7 -5 8 -3 2 7 -5 8 -7 23 -5 34 2 13 -7
7 -26 -20 -37 -50 -171 -176 -232 -218 -25 -17 -40 -24 -33 -15 10 13 10 17 0
21 -10 4 -10 8 1 15 12 8 12 13 2 25 -8 10 -9 17 -1 22 7 4 7 13 -1 27 -8 15
-8 19 0 14 6 -4 11 -3 11 3 0 5 -6 12 -12 14 -10 4 -10 7 -1 14 7 5 9 14 3 23
-5 8 -5 21 1 32 7 13 6 18 -2 18 -8 0 -7 5 2 17 12 15 12 16 -1 8 -13 -8 -13
-7 -1 8 11 14 11 17 0 17 -12 0 -12 2 0 9 11 7 11 10 0 15 -11 5 -11 7 -2 12
9 4 10 11 3 24 -7 13 -7 21 0 25 8 5 8 11 0 20 -8 9 -8 15 0 20 7 4 7 13 -1
27 -8 15 -8 19 0 14 6 -4 11 -3 11 3 0 5 -6 12 -12 14 -10 4 -10 7 -1 14 7 5
9 14 3 23 -5 8 -5 21 1 32 7 13 6 18 -2 18 -8 0 -7 5 2 17 12 15 12 16 -1 8
-13 -8 -13 -7 -1 8 11 14 11 17 0 17 -11 0 -11 2 1 10 8 5 10 10 5 10 -6 0
-11 10 -12 21 -1 12 -4 23 -6 25 -14 15 -129 5 -269 -23z m179 -2922 l1 -391
-35 6 c-41 6 -58 10 -93 18 -31 7 -75 16 -116 22 -90 15 -127 30 -129 52 -1
14 4 22 14 23 12 0 11 3 -4 9 -11 5 -15 9 -8 9 7 1 10 7 7 15 -3 8 0 17 6 21
7 4 8 11 1 19 -7 8 -6 17 1 26 8 12 9 12 4 -3 -3 -10 -2 -15 3 -12 6 3 9 14 8
25 -1 10 -5 16 -10 13 -5 -3 -7 0 -5 8 3 8 11 13 17 11 9 -2 9 3 1 17 -14 28
-13 34 8 26 13 -5 14 -4 5 6 -10 10 -10 16 0 28 10 12 9 13 -2 7 -10 -7 -12
-3 -6 14 4 12 8 28 9 34 1 6 6 17 10 25 6 10 5 12 -2 7 -8 -5 -10 -2 -6 8 3 9
11 13 17 9 6 -4 7 -1 3 6 -5 7 -9 23 -11 37 -2 19 1 24 13 19 11 -4 12 -2 5 7
-5 7 -8 19 -7 26 1 6 2 17 3 23 0 5 6 7 13 3 7 -5 8 -3 2 7 -12 20 -14 39 -3
39 5 0 8 3 8 8 -1 4 -1 14 0 22 1 13 2 13 11 0 8 -13 10 -12 10 3 0 10 4 16 9
12 5 -3 16 1 24 9 8 8 17 12 21 9 3 -4 6 -1 6 7 0 10 3 10 15 0 13 -11 14 -10
9 5 -5 12 -4 16 3 12 16 -10 44 3 36 16 -4 6 0 8 10 4 10 -3 17 -2 17 3 0 6
10 10 23 10 18 0 19 2 7 10 -12 8 -10 10 10 10 29 1 63 23 52 35 -4 5 -2 5 4
2 7 -4 11 -125 11 -396z m96 366 c-4 -7 0 -6 10 2 14 11 18 11 23 -3 3 -9 10
-13 15 -10 5 3 9 0 9 -5 0 -6 3 -10 8 -10 19 3 33 -2 27 -11 -3 -5 0 -7 8 -4
8 3 21 -1 28 -8 8 -7 21 -14 29 -16 8 -2 18 -8 21 -14 3 -5 9 -9 13 -9 19 3
27 0 22 -8 -4 -5 2 -7 12 -4 31 8 49 -28 66 -137 9 -58 18 -117 21 -133 16
-92 36 -213 40 -252 2 -16 5 -37 7 -45 2 -11 -23 -19 -107 -37 -60 -12 -123
-24 -140 -27 -16 -2 -41 -7 -55 -10 -14 -4 -38 -8 -55 -10 l-30 -4 -1 54 c0
29 3 51 7 48 4 -2 11 1 15 7 4 8 3 9 -4 5 -7 -4 -12 -4 -13 1 -7 71 -7 72 9
66 13 -4 14 -3 4 5 -15 10 -27 86 -12 77 5 -3 12 0 16 6 4 8 3 9 -4 5 -7 -4
-13 -2 -13 3 -1 6 -2 17 -3 24 -1 6 2 17 6 24 5 6 5 14 -1 17 -13 8 -6 63 11
84 11 15 11 15 -2 5 -14 -10 -16 -7 -16 27 0 25 4 37 10 33 6 -3 6 0 -1 7 -9
9 -9 19 -2 33 6 11 7 17 2 14 -12 -8 -11 103 1 122 6 10 5 12 -2 7 -7 -4 -12
-1 -12 9 0 10 5 13 12 9 7 -5 8 -3 2 7 -12 19 -12 32 0 48 8 11 8 13 -1 7 -7
-4 -13 -3 -13 3 0 11 21 20 33 14 4 -2 4 -10 0 -16z m467 -781 c0 -2 -8 -10
-17 -17 -16 -13 -17 -12 -4 4 13 16 21 21 21 13z"/>
<path d="M915 2829 c-4 -6 -5 -12 -2 -15 2 -3 7 2 10 11 7 17 1 20 -8 4z"/>
<path d="M3370 2629 c0 -5 5 -7 10 -4 6 3 10 8 10 11 0 2 -4 4 -10 4 -5 0 -10
-5 -10 -11z"/>
<path d="M2295 881 c-3 -5 -2 -12 3 -15 5 -3 9 1 9 9 0 17 -3 19 -12 6z"/>
<path d="M676 22 c-3 -5 1 -9 9 -9 8 0 12 4 9 9 -3 4 -7 8 -9 8 -2 0 -6 -4 -9
-8z"/>
</g>
</svg>
